<?xml version="1.0" standalone="no"?>
<!DOCTYPE svg PUBLIC "-//W3C//DTD SVG 20010904//EN"
 "http://www.w3.org/TR/2001/REC-SVG-20010904/DTD/svg10.dtd">
<svg version="1.0" xmlns="http://www.w3.org/2000/svg"
 width="512.000000pt" height="512.000000pt" viewBox="0 0 512.000000 512.000000"
 preserveAspectRatio="xMidYMid meet">

<g transform="translate(0.000000,512.000000) scale(0.100000,-0.100000)"
fill="#000000" stroke="none">
<path d="M2538 5110 c-159 -27 -334 -126 -429 -243 -24 -29 -46 -56 -50 -60
-4 -5 -31 8 -62 28 -126 84 -325 117 -482 81 -165 -39 -330 -163 -403 -302
l-32 -62 -107 -4 c-83 -3 -125 -10 -181 -30 -366 -131 -521 -548 -324 -873 49
-80 145 -173 220 -213 l62 -33 0 -484 c0 -266 3 -491 6 -500 10 -26 62 -44 94
-33 47 16 50 36 50 370 l0 312 32 -31 c56 -53 145 -109 210 -133 35 -13 64
-24 66 -25 1 -1 -6 -19 -15 -41 -17 -36 -18 -101 -18 -949 0 -869 1 -912 19
-959 87 -225 399 -238 502 -21 l24 50 0 926 0 927 -30 57 c-17 32 -29 59 -28
60 2 1 29 19 61 40 32 21 86 69 120 106 l62 69 60 0 c186 0 388 122 470 282
l30 58 588 0 587 0 0 -1367 c0 -970 -3 -1380 -11 -1408 -15 -53 -91 -129 -144
-144 -28 -7 -280 -11 -818 -11 l-778 0 -24 -25 c-32 -31 -32 -69 0 -101 l25
-24 807 2 808 3 68 32 67 32 0 -62 c0 -34 -5 -80 -11 -102 -15 -53 -91 -129
-144 -144 -56 -15 -2374 -15 -2430 0 -53 15 -129 91 -144 144 -6 22 -11 68
-11 102 l0 62 68 -32 67 -32 300 -3 c294 -3 302 -3 328 18 37 29 37 80 1 109
-26 20 -39 21 -298 21 -167 0 -286 4 -311 11 -53 15 -129 91 -144 144 -7 28
-11 262 -11 751 0 704 0 712 -21 738 -27 34 -79 36 -109 4 -20 -22 -20 -25
-18 -968 l3 -945 31 -65 c39 -82 101 -144 184 -184 l65 -31 1235 0 1235 0 65
31 c83 39 145 101 184 184 l31 65 3 245 3 245 287 195 c158 107 315 222 350
255 163 151 271 360 301 579 14 99 14 839 1 924 -45 273 -220 509 -462 622
-115 54 -191 71 -340 77 l-138 6 0 44 c0 36 7 52 44 97 213 261 174 628 -89
843 -90 74 -190 114 -345 138 -34 5 -36 8 -57 78 -100 326 -454 536 -805 477z
m312 -174 c190 -66 322 -214 369 -416 10 -45 26 -89 34 -97 11 -11 42 -17 104
-19 193 -7 348 -106 426 -272 30 -63 32 -74 32 -177 0 -103 -2 -114 -32 -178
-18 -38 -47 -87 -64 -108 l-31 -39 -652 0 c-573 0 -654 -2 -674 -16 -12 -8
-22 -21 -22 -27 0 -31 -64 -141 -105 -182 -25 -26 -76 -61 -113 -78 -61 -29
-77 -32 -185 -35 l-119 -4 -31 -47 c-48 -70 -129 -147 -189 -177 -234 -119
-521 -37 -642 185 -32 61 -56 140 -56 192 0 48 -13 61 -101 104 -354 170 -355
638 -2 812 l77 38 141 1 c77 1 148 4 157 8 10 4 27 33 38 64 73 196 240 312
451 312 129 0 230 -41 342 -138 71 -62 110 -55 151 26 70 138 219 251 379 288
90 20 226 12 317 -20z m1271 -1689 c178 -60 314 -178 393 -338 74 -150 78
-185 74 -687 -4 -404 -5 -431 -26 -499 -47 -155 -128 -290 -232 -386 -31 -29
-164 -126 -296 -216 l-239 -162 -3 153 c-1 83 -1 157 2 164 2 6 85 66 185 133
192 130 247 182 299 278 60 113 63 147 60 627 l-3 431 -31 65 c-40 83 -102
145 -184 184 -61 29 -74 31 -197 34 l-133 4 0 125 0 126 128 -5 c101 -4 142
-10 203 -31z m-86 -378 c54 -15 127 -91 144 -150 9 -33 11 -151 9 -459 -3
-381 -5 -419 -22 -460 -39 -92 -88 -143 -230 -239 -74 -50 -137 -91 -140 -91
-3 0 -6 317 -6 705 l0 705 103 0 c56 0 120 -5 142 -11z m-2529 -25 c67 -32 64
20 64 -969 0 -987 4 -927 -61 -961 -85 -44 -172 6 -184 107 -3 29 -5 437 -3
904 3 815 4 851 22 878 37 55 99 71 162 41z"/>
<path d="M2200 3001 c-69 -21 -140 -82 -176 -151 -18 -33 -19 -78 -19 -970 l0
-935 29 -53 c106 -191 376 -191 482 0 l29 53 3 909 c3 1029 6 976 -73 1064
-69 76 -183 111 -275 83z m137 -161 c67 -40 64 15 61 -976 l-3 -896 -37 -34
c-30 -27 -46 -34 -79 -34 -22 0 -54 8 -70 17 -62 37 -59 -4 -59 963 0 973 -3
920 63 960 41 25 83 25 124 0z"/>
<path d="M3004 2994 c-61 -22 -119 -77 -151 -142 l-28 -57 0 -910 c0 -869 1
-912 19 -959 88 -227 405 -237 505 -16 20 44 21 63 21 628 0 569 0 582 -20
602 -25 25 -71 26 -101 1 l-24 -19 -3 -572 c-2 -508 -4 -574 -19 -596 -22 -34
-64 -54 -114 -54 -56 0 -104 47 -114 111 -3 24 -5 431 -3 904 3 825 4 861 22
888 23 33 65 57 101 57 37 0 93 -28 108 -54 8 -14 14 -94 17 -234 l5 -214 29
-25 c31 -27 66 -25 99 4 15 14 17 39 17 242 0 247 -4 267 -65 339 -63 75 -206
111 -301 76z"/>
</g>
</svg>
